<svg width="16" height="16" viewBox="0 0 16 16" fill="none" xmlns="http://www.w3.org/2000/svg">
<path d="M5.66664 15C6.52575 15 7.2222 14.3036 7.2222 13.4444C7.2222 12.5853 6.52575 11.8889 5.66664 11.8889C4.80753 11.8889 4.11108 12.5853 4.11108 13.4444C4.11108 14.3036 4.80753 15 5.66664 15Z" stroke="#E21736" stroke-linecap="round" stroke-linejoin="round"/>
<path d="M11.8889 15C12.748 15 13.4445 14.3036 13.4445 13.4444C13.4445 12.5853 12.748 11.8889 11.8889 11.8889C11.0298 11.8889 10.3334 12.5853 10.3334 13.4444C10.3334 14.3036 11.0298 15 11.8889 15Z" stroke="#E21736" stroke-linecap="round" stroke-linejoin="round"/>
<path d="M1 1H2.55556L4.11111 10.3333C4.2789 10.8105 4.59718 11.2202 5.01802 11.5008C5.43886 11.7813 5.93947 11.9175 6.44444 11.8889H11.8889C12.3939 11.9175 12.8945 11.7813 13.3153 11.5008C13.7362 11.2202 14.0544 10.8105 14.2222 10.3333L15 4.88889H3.17778" stroke="#E21736" stroke-linecap="round" stroke-linejoin="round"/>
</svg>
