<svg width="16" height="16" viewBox="0 0 16 16" fill="none" xmlns="http://www.w3.org/2000/svg">
<path fill-rule="evenodd" clip-rule="evenodd" d="M11.225 2C10.2207 1.99971 9.25849 2.40333 8.55496 3.12L7.99996 3.68L7.44496 3.12C6.74093 2.40419 5.77897 2.00105 4.77496 2.00105C3.77095 2.00105 2.80898 2.40419 2.10496 3.12C0.632494 4.62276 0.632494 7.02724 2.10496 8.53L7.99996 14.5L13.895 8.53C15.3674 7.02724 15.3674 4.62276 13.895 3.12C13.1914 2.40333 12.2292 1.99971 11.225 2Z" fill="#E21736"/>
<mask id="mask0" mask-type="alpha" maskUnits="userSpaceOnUse" x="1" y="2" width="14" height="13">
<path fill-rule="evenodd" clip-rule="evenodd" d="M11.225 2C10.2207 1.99971 9.25849 2.40333 8.55496 3.12L7.99996 3.68L7.44496 3.12C6.74093 2.40419 5.77897 2.00105 4.77496 2.00105C3.77095 2.00105 2.80898 2.40419 2.10496 3.12C0.632494 4.62276 0.632494 7.02724 2.10496 8.53L7.99996 14.5L13.895 8.53C15.3674 7.02724 15.3674 4.62276 13.895 3.12C13.1914 2.40333 12.2292 1.99971 11.225 2Z" fill="white"/>
</mask>
<g mask="url(#mask0)">
</g>
</svg>
