<svg width="16" height="16" viewBox="0 0 16 16" fill="none" xmlns="http://www.w3.org/2000/svg">
<path fill-rule="evenodd" clip-rule="evenodd" d="M15.47 7.83C14.267 4.72169 11.3306 2.62656 8.00003 2.5C4.66942 2.62656 1.7331 4.72169 0.530031 7.83C0.490315 7.93985 0.490315 8.06015 0.530031 8.17C1.7331 11.2783 4.66942 13.3734 8.00003 13.5C11.3306 13.3734 14.267 11.2783 15.47 8.17C15.5097 8.06015 15.5097 7.93985 15.47 7.83ZM8.00003 12.5C5.35003 12.5 2.55003 10.535 1.53503 8C2.55003 5.465 5.35003 3.5 8.00003 3.5C10.65 3.5 13.45 5.465 14.465 8C13.45 10.535 10.65 12.5 8.00003 12.5ZM8.00001 5C6.34316 5 5.00001 6.34315 5.00001 8C5.00001 9.65685 6.34316 11 8.00001 11C9.65687 11 11 9.65685 11 8C11 6.34315 9.65687 5 8.00001 5ZM8.00001 10C6.89544 10 6.00001 9.10457 6.00001 8C6.00001 6.89543 6.89544 6 8.00001 6C9.10458 6 10 6.89543 10 8C10 8.53043 9.7893 9.03914 9.41423 9.41421C9.03916 9.78929 8.53045 10 8.00001 10Z" fill="#FF8480"/>
<mask id="masks" mask-type="alpha" maskUnits="userSpaceOnUse" x="0" y="2" width="16" height="12">
<path fill-rule="evenodd" clip-rule="evenodd" d="M15.47 7.83C14.267 4.72169 11.3306 2.62656 8.00003 2.5C4.66942 2.62656 1.7331 4.72169 0.530031 7.83C0.490315 7.93985 0.490315 8.06015 0.530031 8.17C1.7331 11.2783 4.66942 13.3734 8.00003 13.5C11.3306 13.3734 14.267 11.2783 15.47 8.17C15.5097 8.06015 15.5097 7.93985 15.47 7.83ZM8.00003 12.5C5.35003 12.5 2.55003 10.535 1.53503 8C2.55003 5.465 5.35003 3.5 8.00003 3.5C10.65 3.5 13.45 5.465 14.465 8C13.45 10.535 10.65 12.5 8.00003 12.5ZM8.00001 5C6.34316 5 5.00001 6.34315 5.00001 8C5.00001 9.65685 6.34316 11 8.00001 11C9.65687 11 11 9.65685 11 8C11 6.34315 9.65687 5 8.00001 5ZM8.00001 10C6.89544 10 6.00001 9.10457 6.00001 8C6.00001 6.89543 6.89544 6 8.00001 6C9.10458 6 10 6.89543 10 8C10 8.53043 9.7893 9.03914 9.41423 9.41421C9.03916 9.78929 8.53045 10 8.00001 10Z" fill="white"/>
</mask>
<g mask="url(#masks)">
</g>
</svg>
